<?xml version="1.0" encoding="UTF-8" standalone="no"?>
<svg
   xmlns:dc="http://purl.org/dc/elements/1.1/"
   xmlns:cc="http://creativecommons.org/ns#"
   xmlns:rdf="http://www.w3.org/1999/02/22-rdf-syntax-ns#"
   xmlns:svg="http://www.w3.org/2000/svg"
   xmlns="http://www.w3.org/2000/svg"
   viewBox="0 0 188.97639 321.25986"
   height="321.25986"
   width="188.97639"
   xml:space="preserve"
   id="svg2"
   version="1.1"><metadata
     id="metadata8"><rdf:RDF><cc:Work
         rdf:about=""><dc:format>image/svg+xml</dc:format><dc:type
           rdf:resource="http://purl.org/dc/dcmitype/StillImage" /></cc:Work></rdf:RDF></metadata><defs
     id="defs6" /><g
     transform="matrix(1.3333333,0,0,-1.3333333,0,321.25987)"
     id="g10"><path
       id="path12"
       style="fill:#ffffff;fill-opacity:1;fill-rule:evenodd;stroke:none"
       d="M 69.4026,231.9534 15.5446,118.5676 69.4023,5.1812 123.2612,118.5673 Z" /><path
       id="path14"
       style="fill:#1756c2;fill-opacity:1;fill-rule:nonzero;stroke:none"
       d="M 17.5289,118.567 69.4621,9.0527 121.2769,118.567 69.4023,227.7748 Z" /><path
       id="path16"
       style="fill:#ffffff;fill-opacity:1;fill-rule:nonzero;stroke:none"
       d="M 117.3081,118.5678 69.4029,17.7134 21.4977,118.5678 69.4029,219.422 Z" /><path
       id="path18"
       style="fill:#1756c2;fill-opacity:1;fill-rule:nonzero;stroke:none"
       d="M 113.3396,118.567 69.402,26.0685 25.4659,118.567 69.402,211.1573 Z" /><path
       id="path20"
       style="fill:#ffffff;fill-opacity:1;fill-rule:nonzero;stroke:none"
       d="M 78.9712,56.8831 H 59.8323 l 2.16,-4.5485 h 14.8178 z" /><path
       id="path22"
       style="fill:#ffffff;fill-opacity:1;fill-rule:nonzero;stroke:none"
       d="M 75.0163,48.5555 H 63.8116 l 5.5913,-11.8176 z" /><path
       id="path24"
       style="fill:#ffffff;fill-opacity:1;fill-rule:nonzero;stroke:none"
       d="m 77.3226,111.2068 c -1.5948,0.9618 -4.2364,1.9874 -7.2244,2.5742 -0.7174,0.1406 -2.1089,0.3611 -3.6643,0.3988 -1.5551,0.0374 -4.1545,-0.1511 -5.9652,-0.6602 -1.8105,-0.5091 -3.2236,-1.2322 -3.2077,-2.317 0.0159,-1.0846 1.0641,-1.6747 2.6983,-2.3114 1.6344,-0.6364 5.2016,-0.9643 6.9684,-0.9779 3.3777,-0.027 7.7981,1.36 10.3949,3.2935 z m -8.0249,12.0989 c 3.2845,0.2075 6.1597,1.2577 8.5578,2.7666 -1.5945,1.2129 -3.1133,2.1217 -7.8531,2.9384 -3.3259,0.5729 -6.1395,0.5332 -9.415,-0.2979 -1.3226,-0.3359 -3.1597,-1.359 -3.1759,-2.5697 -0.0278,-2.0698 6.9242,-3.1504 11.8862,-2.8374 z m 6.1325,-35.0433 c -1.5976,1.5888 -3.5841,2.4647 -6.0276,2.4647 -2.4426,0 -4.5468,-0.9859 -6.141,-2.5668 -1.5962,-1.5834 -2.4621,-3.613 -2.4621,-6.0366 0,-2.4203 0.8427,-4.4161 2.4403,-6.0024 1.5962,-1.5834 3.6731,-2.6286 6.1628,-2.6005 2.49,0.0281 4.5853,0.989 6.1552,2.5923 1.5698,1.6032 2.4448,3.5903 2.448,6.0106 0.0011,2.4244 -0.9749,4.5504 -2.5756,6.1387 z M 71.2505,70.3976 71.2488,66.0702 83.334,66.0657 80.8248,60.7822 H 57.9807 l -2.5112,5.2869 12.06,-0.0159 0.0071,4.354 c -1.2263,0.197 -2.4758,0.6129 -3.5501,1.1531 -1.158,0.5817 -2.1555,1.3581 -3.0535,2.2493 -1.0899,1.0817 -1.9333,2.3766 -2.5166,3.8155 -0.5743,1.4179 -0.8819,2.8686 -0.8819,4.4986 0,1.6302 0.3575,3.2419 0.8929,4.5255 0.5352,1.2832 1.5239,2.8162 2.5376,3.8211 1.0134,1.0048 2.0463,1.7291 3.1745,2.2943 1.1282,0.5653 2.287,0.9187 3.5326,1.103 l 0.009,4.8645 c -8e-4,1.1067 0.582,1.601 1.6229,1.7073 6.0593,0.6188 11.4715,2.7632 11.876,6.3581 0.1358,1.2068 -0.4479,2.018 -1.0709,2.5215 -2.4982,-2.1257 -5.584,-3.6856 -9.9114,-4.3512 -3.3667,-0.5171 -8.2973,-0.3056 -11.5622,0.8748 -0.7288,0.2636 -2.374,0.8126 -3.6757,2.1775 -1.3019,1.3652 -1.3317,2.268 -1.2906,3.1635 0.0414,0.8957 0.4,2.0293 1.3201,2.9214 0.9198,0.8918 2.5401,1.6911 3.8109,2.1013 1.1866,0.3824 2.3278,0.6369 3.5351,0.7911 1.2073,0.1543 2.482,0.2849 3.9424,0.2733 1.0667,-0.01 1.9505,-0.1145 3.198,-0.265 2.5223,-0.305 4.2361,-0.7515 5.6923,-1.2816 1.7351,-0.633 3.0796,-1.2291 4.4359,-1.9732 1.2875,1.298 2.1963,2.5943 2.2558,4.8164 0.0596,2.2221 -0.2273,3.6487 -1.536,5.0797 -2.9759,-2.0588 -6.7006,-3.1403 -11.0254,-3.5011 -5.0003,-0.417 -8.172,0.481 -10.1872,1.0925 -2.0151,0.6114 -3.1804,1.3767 -4.0268,2.1259 -0.8465,0.749 -1.4004,1.9693 -1.3882,2.9688 0.0122,0.9995 0.4513,1.9649 1.2969,2.8165 0.8453,0.8515 2.9055,1.8513 3.494,2.0868 0.5881,0.2353 1.9012,0.6183 3.2907,0.9009 2.5668,0.5221 5.0111,0.5734 7.6246,0.256 3.3548,-0.4074 8.1754,-1.7521 10.9109,-4.1457 1.0494,1.3019 0.9867,1.6356 1.0091,2.5135 -1.4003,3.8225 -8.2794,5.9632 -12.0141,6.1222 -1.2895,0.0545 -1.7175,0.1761 -1.7144,1.6745 l -0.0099,5.4019 -13.7718,16.8639 h 4.7556 l 9.1185,-11.1637 -0.0045,11.1637 h 3.541 l 0.0051,-11.2274 9.0672,11.2269 4.6984,5e-4 -13.9042,-16.8653 v -3.7374 c 5.8034,-0.9587 12.9708,-3.4532 13.8314,-9.5698 0.2928,-2.0809 -0.9468,-3.6621 -2.0517,-4.8977 2.969,-3.1187 4.2899,-9.4241 -0.3991,-14.0216 1.3172,-1.2753 2.2178,-3.0577 2.2155,-4.932 -0.0017,-1.381 -0.0717,-2.0514 -1.3167,-3.8526 -2.0358,-2.9452 -6.0426,-4.6754 -12.0682,-5.8388 l -8e-4,-3.2669 c 1.2526,-0.1851 2.3521,-0.5842 3.4304,-1.1214 1.1662,-0.5808 2.2091,-1.3547 3.1303,-2.2702 1.107,-1.097 1.9293,-2.393 2.5388,-3.8515 0.5859,-1.4037 0.8713,-2.8601 0.8722,-4.4747 8e-4,-1.6164 -0.2875,-3.0649 -0.8728,-4.476 -0.6044,-1.457 -1.3918,-2.7138 -2.4971,-3.8089 -0.915,-0.9082 -1.9201,-1.7036 -3.0991,-2.2875 -1.1009,-0.5448 -2.2963,-0.9664 -3.5518,-1.1537" /><g
       transform="scale(0.91,1)"
       id="g26"><path
         id="path28"
         style="fill:#ffffff;fill-opacity:1;fill-rule:nonzero;stroke:none"
         d="m 69.3646,187.4027 v -20.4095 h 3.9663 v 7.82 h 3.0401 c 1.3085,0 2.4225,0.051 3.3378,0.153 0.9094,0.1009 1.6316,0.241 2.1453,0.4505 0.5765,0.235 0.9575,0.4365 1.4343,0.8141 0.4348,0.3444 0.8274,0.7633 1.1758,1.2563 0.3478,0.4918 0.6103,1.0451 0.7852,1.6566 0.1752,0.6137 0.3135,1.2543 0.3135,2.029 0,0.775 -0.1513,1.5486 -0.3546,2.2079 -0.2027,0.6559 -0.5071,1.2387 -0.9113,1.747 -0.4037,0.5063 -0.862,0.9261 -1.372,1.2566 -0.5074,0.3291 -1.0718,0.5717 -1.6886,0.7254 -0.3889,0.0958 -1.0052,0.1689 -1.8453,0.2185 -0.8465,0.0496 -1.9182,0.0746 -3.2154,0.0746 z m 3.9663,-3.1867 h 2.3062 c 0.9134,0 1.9216,-0.0221 2.5175,-0.0593 0.6074,-0.0377 1.0678,-0.1032 1.3212,-0.1856 0.4215,-0.1367 0.8107,-0.3396 1.1177,-0.6166 0.3132,-0.2823 0.5536,-0.5902 0.7492,-0.9819 0.1956,-0.3915 0.3175,-0.9145 0.3181,-1.243 2e-4,-0.3285 -0.0154,-0.7546 -0.2033,-1.1979 -0.1882,-0.4434 -0.5182,-0.8527 -0.8595,-1.1543 -0.3415,-0.3016 -0.6446,-0.4685 -1.1055,-0.629 -0.4606,-0.1601 -1.1704,-0.2021 -1.2682,-0.2089 -0.5573,-0.04 -1.4919,-0.0672 -2.2997,-0.0672 h -2.5937 z" /></g><g
       transform="matrix(0,-0.98,1,0,0,0)"
       id="g30"><path
         id="path32"
         style="fill:#ffffff;fill-opacity:1;fill-rule:nonzero;stroke:none"
         d="m -114.1787,34.1938 h 3.6332 v 14.7398 h -3.2369 V 38.5512 38.2419 l -0.2642,0.1877 -14.2237,10.1052 h -3.1005 V 35.2874 h 3.2522 v 8.4843 0.3085 l 0.263,-0.1868 z" /></g><path
       id="path34"
       style="fill:#ffffff;fill-opacity:1;fill-rule:nonzero;stroke:none"
       d="m 89.9529,128.772 v -20.4094 h 3.2148 v 6.1256 0.0363 l 0.0221,0.0292 2.6096,3.4472 0.1009,0.1338 0.0751,-0.1505 4.7923,-9.6216 h 3.9257 l -6.2402,12.4338 -0.0303,0.0599 0.0402,0.0541 5.8728,7.8616 h -4.0694 l -6.9114,-9.1159 -0.1874,-0.2467 v 0.3124 9.0502 z" /></g></svg>